<svg xmlns="http://www.w3.org/2000/svg" version="1.1" xmlns:xlink="http://www.w3.org/1999/xlink" xmlns:svgjs="http://svgjs.dev/svgjs" width="1000" height="623" viewBox="0 0 1000 623"><g transform="matrix(1,0,0,1,-0.6060606060606233,0.2522267206477409)"><svg viewBox="0 0 396 247" data-background-color="#ffffff" preserveAspectRatio="xMidYMid meet" height="623" width="1000" xmlns="http://www.w3.org/2000/svg" xmlns:xlink="http://www.w3.org/1999/xlink"><g id="tight-bounds" transform="matrix(1,0,0,1,0.2400000000000091,-0.09999999999999432)"><svg viewBox="0 0 395.52 247.2" height="247.2" width="395.52"><g><svg></svg></g><g><svg viewBox="0 0 395.52 247.2" height="247.2" width="395.52"><g mask="url(&quot;#32d2aade-a229-4ce1-9b20-b75888a7f377&quot;)"><g><path d="M175.151 189.9l-10.388 42.162h-163.763v-8.554h10.388c5.907 0 9.838-1.12 11.793-3.361 1.915-2.241 2.872-5.805 2.872-10.694v0-168.651c0-4.074-1.263-7.435-3.788-10.082-2.566-2.648-6.192-3.972-10.877-3.972v0h-10.388v-8.555h161.319l2.444 42.163-8.555 1.833c0-7.333-2.953-14.36-8.86-21.082-5.907-6.722-14.156-10.082-24.748-10.082v0h-55.606c-6.111 0-10.082 1.161-11.916 3.483-1.833 2.363-2.75 5.683-2.749 9.96v0 69.661h61.105c3.055 0 5.398-0.163 7.027-0.489 1.629-0.285 3.116-1.344 4.461-3.178 1.304-1.833 1.955-4.481 1.956-7.943v0-14.055h9.165v63.55h-9.165v-12.832c0-5.092-1.12-8.392-3.361-9.899-2.241-1.548-5.601-2.322-10.083-2.322v0h-61.105v78.826c0 4.277 0.917 7.577 2.749 9.899 1.833 2.363 5.805 3.544 11.916 3.544v0h58.05c10.795 0 20.328-3.463 28.598-10.388 8.229-6.925 12.547-13.647 12.954-20.165v0zM196.538 18.193h47.051l58.05-3.055c17.924 0 32.59 3.768 43.997 11.304 11.406 7.536 17.11 17.822 17.109 30.858v0c0 18.128-4.888 32.895-14.665 44.302-9.777 11.406-21.794 20.063-36.053 25.97v0l49.496 74.549c2.037 3.259 5.948 7.638 11.732 13.137 5.825 5.5 11.08 8.249 15.765 8.25v0h5.5v8.554h-45.218c0.611 0-1.324-3.055-5.805-9.165-4.481-6.111-7.027-9.777-7.638-10.999v0l-50.718-78.216c-2.037 0.407-6.111 0.611-12.221 0.611-6.111 0-10.999-0.204-14.665-0.611v0l-2.445-12.221c2.852 0.407 8.962 0.611 18.332 0.611 9.37 0 18.739-1.222 28.109-3.666 9.37-2.444 17.619-7.088 24.747-13.932 7.129-6.803 10.693-15.602 10.694-26.398v0c0-30.145-19.35-45.218-58.051-45.218v0l-31.774 1.222v175.373c0 3.055 0.204 5.398 0.611 7.027 0.407 1.629 1.731 3.198 3.971 4.706 2.241 1.548 5.601 2.322 10.083 2.322v0h11.61v8.554h-77.604v-8.554h9.777c4.481 0 7.842-0.774 10.082-2.322 2.241-1.507 3.564-3.076 3.972-4.706 0.407-1.629 0.611-3.972 0.611-7.027v0-168.651c0-4.685-0.978-8.107-2.933-10.266-1.915-2.118-5.825-3.177-11.732-3.177v0h-9.777z" fill="#ffdc00" fill-rule="nonzero" stroke="none" stroke-width="1" stroke-linecap="butt" stroke-linejoin="miter" stroke-miterlimit="10" stroke-dasharray="" stroke-dashoffset="0" font-family="none" font-weight="none" font-size="none" text-anchor="none" style="mix-blend-mode: normal" data-fill-palette-color="tertiary"></path></g></g><g transform="matrix(1,0,0,1,0,73.94173256126837)"><svg viewBox="0 0 395.52 99.31653487746327" height="99.31653487746327" width="395.52"><g><svg viewBox="0 0 395.52 99.31653487746327" height="99.31653487746327" width="395.52"><g><svg viewBox="0 0 395.52 99.31653487746327" height="99.31653487746327" width="395.52"><g><svg viewBox="0 0 395.52 99.31653487746327" height="99.31653487746327" width="395.52"><g id="textblocktransform"><svg viewBox="0 0 395.52 99.31653487746327" height="99.31653487746327" width="395.52" id="textblock"><g><svg viewBox="0 0 395.52 58.79584581818182" height="58.79584581818182" width="395.52"><g transform="matrix(1,0,0,1,0,0)"><svg width="395.52" viewBox="-1 -38.9 344.73 52.1" height="58.79584581818182" data-palette-color="#323232"><path d="M30.5-6.9L28.8 0 2 0 2-1.4 3.7-1.4Q5.15-1.4 5.63-1.95 6.1-2.5 6.1-3.7L6.1-3.7 6.1-31.3Q6.1-32.3 5.48-32.95 4.85-33.6 3.7-33.6L3.7-33.6 2-33.6 2-35 28.4-35 28.8-28.1 27.4-27.8Q27.4-29.6 25.95-31.25 24.5-32.9 21.9-32.9L21.9-32.9 12.8-32.9Q11.3-32.9 10.85-32.33 10.4-31.75 10.4-30.7L10.4-30.7 10.4-19.3 20.4-19.3Q21.15-19.3 21.55-19.38 21.95-19.45 22.28-19.9 22.6-20.35 22.6-21.2L22.6-21.2 22.6-23.5 24.1-23.5 24.1-13.1 22.6-13.1 22.6-15.2Q22.6-16.45 22.05-16.82 21.5-17.2 20.4-17.2L20.4-17.2 10.4-17.2 10.4-4.3Q10.4-3.25 10.85-2.68 11.3-2.1 12.8-2.1L12.8-2.1 22.3-2.1Q24.95-2.1 26.98-3.8 29-5.5 29.1-7.1L29.1-7.1 30.5-6.9ZM84.9 8.7L84.9 8.7 84.4 10.1Q83.7 10.2 81.55 10.2 79.4 10.2 75.9 9.78 72.4 9.35 68.15 8.4 63.9 7.45 59.52 5.45 55.15 3.45 51.7 0.7L51.7 0.7Q50.5 1 49.1 1L49.1 1Q42.55 1 38.12-4.08 33.7-9.15 33.7-15.8L33.7-15.8Q33.7-21.05 36.75-25.8 39.8-30.55 44.25-33.23 48.7-35.9 53-35.9L53-35.9Q59.55-35.9 63.97-30.8 68.4-25.7 68.4-19.1L68.4-19.1Q68.4-13.7 65.35-9 62.3-4.3 57.2-1.3L57.2-1.3Q61.25 2.5 69.25 5.6 77.25 8.7 84.9 8.7ZM52.2-2.8L52.2-2.8Q57.5-2.8 61.3-6.95 65.1-11.1 65.1-16.4L65.1-16.4Q65.1-22.6 60.72-27.25 56.35-31.9 50.3-31.9L50.3-31.9Q45.1-31.9 41.1-28.18 37.1-24.45 37.1-19.3L37.1-19.3Q37.1-15.25 38.9-11.53 40.7-7.8 44.25-5.3 47.8-2.8 52.2-2.8ZM80.25-21Q81.35-21 82.02-20.2 82.7-19.4 82.7-18.25 82.7-17.1 81.72-16.3 80.75-15.5 79.62-15.5 78.5-15.5 77.9-16.3 77.3-17.1 77.3-18.2 77.3-19.3 78.22-20.15 79.15-21 80.25-21ZM80.25-4.7Q81.35-4.7 82.02-3.95 82.7-3.2 82.7-2.02 82.7-0.85 81.75-0.08 80.8 0.7 79.65 0.7 78.5 0.7 77.9-0.08 77.3-0.85 77.3-1.95 77.3-3.05 78.22-3.88 79.15-4.7 80.25-4.7ZM100.79-35L108.49-35 117.99-35.5Q122.39-35.5 125.19-33.65 127.99-31.8 127.99-28.6L127.99-28.6Q127.99-24.15 125.59-21.35 123.19-18.55 119.69-17.1L119.69-17.1 127.79-4.9Q128.29-4.1 129.72-2.75 131.14-1.4 132.29-1.4L132.29-1.4 133.19-1.4 133.19 0 125.79 0Q125.94 0 124.84-1.5 123.74-3 123.59-3.3L123.59-3.3 115.29-16.1Q114.79-16 113.29-16 111.79-16 110.89-16.1L110.89-16.1 110.49-18.1Q111.19-18 113.49-18 115.79-18 118.09-18.6 120.39-19.2 122.14-20.88 123.89-22.55 123.89-25.2L123.89-25.2Q123.89-32.6 114.39-32.6L114.39-32.6 109.19-32.4 109.19-3.7Q109.19-2.95 109.29-2.55 109.39-2.15 109.94-1.78 110.49-1.4 111.59-1.4L111.59-1.4 113.49-1.4 113.49 0 100.79 0 100.79-1.4 102.39-1.4Q103.49-1.4 104.04-1.78 104.59-2.15 104.69-2.55 104.79-2.95 104.79-3.7L104.79-3.7 104.79-31.3Q104.79-32.45 104.32-32.98 103.84-33.5 102.39-33.5L102.39-33.5 100.79-33.5 100.79-35ZM164.59-6.9L162.89 0 136.09 0 136.09-1.4 137.79-1.4Q139.24-1.4 139.71-1.95 140.19-2.5 140.19-3.7L140.19-3.7 140.19-31.3Q140.19-32.3 139.56-32.95 138.94-33.6 137.79-33.6L137.79-33.6 136.09-33.6 136.09-35 162.49-35 162.89-28.1 161.49-27.8Q161.49-29.6 160.04-31.25 158.59-32.9 155.99-32.9L155.99-32.9 146.89-32.9Q145.39-32.9 144.94-32.33 144.49-31.75 144.49-30.7L144.49-30.7 144.49-19.3 154.49-19.3Q155.24-19.3 155.64-19.38 156.04-19.45 156.36-19.9 156.69-20.35 156.69-21.2L156.69-21.2 156.69-23.5 158.19-23.5 158.19-13.1 156.69-13.1 156.69-15.2Q156.69-16.45 156.14-16.82 155.59-17.2 154.49-17.2L154.49-17.2 144.49-17.2 144.49-4.3Q144.49-3.25 144.94-2.68 145.39-2.1 146.89-2.1L146.89-2.1 156.39-2.1Q159.04-2.1 161.06-3.8 163.09-5.5 163.19-7.1L163.19-7.1 164.59-6.9ZM218.99 8.7L218.99 8.7 218.49 10.1Q217.79 10.2 215.64 10.2 213.49 10.2 209.99 9.78 206.49 9.35 202.24 8.4 197.99 7.45 193.61 5.45 189.24 3.45 185.79 0.7L185.79 0.7Q184.59 1 183.19 1L183.19 1Q176.64 1 172.21-4.08 167.79-9.15 167.79-15.8L167.79-15.8Q167.79-21.05 170.84-25.8 173.89-30.55 178.34-33.23 182.79-35.9 187.09-35.9L187.09-35.9Q193.64-35.9 198.06-30.8 202.49-25.7 202.49-19.1L202.49-19.1Q202.49-13.7 199.44-9 196.39-4.3 191.29-1.3L191.29-1.3Q195.34 2.5 203.34 5.6 211.34 8.7 218.99 8.7ZM186.29-2.8L186.29-2.8Q191.59-2.8 195.39-6.95 199.19-11.1 199.19-16.4L199.19-16.4Q199.19-22.6 194.81-27.25 190.44-31.9 184.39-31.9L184.39-31.9Q179.19-31.9 175.19-28.18 171.19-24.45 171.19-19.3L171.19-19.3Q171.19-15.25 172.99-11.53 174.79-7.8 178.34-5.3 181.89-2.8 186.29-2.8ZM237.48-14.4L237.48-14.4 237.48-31.3Q237.48-33.5 234.38-33.5L234.38-33.5 232.78-33.5 232.78-35 244.78-35 244.78-33.5 242.88-33.5Q241.23-33.5 240.41-32.88 239.58-32.25 239.58-31.3L239.58-31.3 239.58-14.4Q239.58-10.6 238.21-7.53 236.83-4.45 234.68-2.65L234.68-2.65Q230.23 1 225.28 1 220.33 1 216.51-2.1 212.68-5.2 212.68-9.4L212.68-9.4 212.68-31.3Q212.68-32.05 212.58-32.45 212.48-32.85 211.93-33.18 211.38-33.5 210.28-33.5L210.28-33.5 208.58-33.5 208.58-35 221.38-35 221.38-33.5 219.48-33.5Q218.38-33.5 217.83-33.18 217.28-32.85 217.18-32.45 217.08-32.05 217.08-31.3L217.08-31.3 217.08-13.7Q217.08-8.15 219.61-5.68 222.13-3.2 227.18-3.2L227.18-3.2Q229.53-3.2 231.48-4 233.43-4.8 234.61-5.9 235.78-7 236.63-9.22 237.48-11.45 237.48-14.4ZM261.23-1.4L261.23 0 248.53 0 248.53-1.4 250.23-1.4Q251.73-1.4 252.18-2 252.63-2.6 252.63-3.7L252.63-3.7 252.63-31.3Q252.63-32.4 252.18-33 251.73-33.6 250.23-33.6L250.23-33.6 248.53-33.6 248.53-35 261.23-35 261.23-33.6 259.33-33.6Q257.83-33.6 257.38-33 256.93-32.4 256.93-31.3L256.93-31.3 256.93-3.7Q256.93-2.6 257.38-2 257.83-1.4 259.33-1.4L259.33-1.4 261.23-1.4ZM293.73-6.9L292.03 0 265.23 0 265.23-1.4 266.93-1.4Q268.38-1.4 268.85-1.95 269.33-2.5 269.33-3.7L269.33-3.7 269.33-31.3Q269.33-32.3 268.7-32.95 268.08-33.6 266.93-33.6L266.93-33.6 265.23-33.6 265.23-35 291.63-35 292.03-28.1 290.63-27.8Q290.63-29.6 289.18-31.25 287.73-32.9 285.13-32.9L285.13-32.9 276.03-32.9Q274.53-32.9 274.08-32.33 273.63-31.75 273.63-30.7L273.63-30.7 273.63-19.3 283.63-19.3Q284.38-19.3 284.78-19.38 285.18-19.45 285.5-19.9 285.83-20.35 285.83-21.2L285.83-21.2 285.83-23.5 287.33-23.5 287.33-13.1 285.83-13.1 285.83-15.2Q285.83-16.45 285.28-16.82 284.73-17.2 283.63-17.2L283.63-17.2 273.63-17.2 273.63-4.3Q273.63-3.25 274.08-2.68 274.53-2.1 276.03-2.1L276.03-2.1 285.53-2.1Q288.18-2.1 290.2-3.8 292.23-5.5 292.33-7.1L292.33-7.1 293.73-6.9ZM329.83-29.9L318.63-0.5Q318.58-0.5 318.38-0.5 318.18-0.5 316.83 0.5L316.83 0.5 305.33-29.6 302.93-3.4Q302.83-2.6 303.68-2.05 304.53-1.5 306.03-1.5L306.03-1.5 308.13-1.5 308.13 0 296.13 0 296.13-1.5 297.73-1.5Q300.63-1.5 300.83-3.7L300.83-3.7 303.33-31.3Q303.43-32.25 302.65-32.88 301.88-33.5 300.23-33.5L300.23-33.5 298.63-33.5 298.63-35 308.03-35 318.73-6.8 329.53-35 338.53-35 338.53-33.6 336.53-33.6Q334.13-33.6 334.13-31.75L334.13-31.75Q334.13-31.6 334.13-31.4L334.13-31.4 336.43-3.7Q336.53-2.55 337-2.02 337.48-1.5 338.73-1.5L338.73-1.5 340.73-1.5 340.73 0 327.93 0 327.93-1.5 329.63-1.5Q331.03-1.5 331.53-1.95 332.03-2.4 332.03-2.93 332.03-3.45 332.03-3.7L332.03-3.7 329.83-29.9Z" opacity="1" transform="matrix(1,0,0,1,0,0)" fill="#323232" class="undefined-text-0" data-fill-palette-color="primary" id="text-0"></path></svg></g></svg></g><g transform="matrix(1,0,0,1,2.5,66.53606739819054)"><svg viewBox="0 0 390.52 32.78046747927272" height="32.78046747927272" width="390.52"><g transform="matrix(1,0,0,1,0,0)"><svg width="390.52" viewBox="-1.12 -43.6 552.07 47.160000000000004" height="32.78046747927272" data-palette-color="#404040"><path d="M6.73-4.74Q4.35-7.2 3.11-10.56 1.88-13.92 1.88-17.35 1.88-20.78 2.56-23.41 3.25-26.05 4.46-28.22 5.66-30.4 7.36-32.1 9.06-33.81 11.08-34.99L11.08-34.99Q15.21-37.38 19.92-37.38 24.63-37.38 28.1-36 31.57-34.62 33.94-32.2L33.94-32.2Q38.75-27.29 38.75-19.31L38.75-19.31Q38.75-10.42 33.35-4.81L33.35-4.81Q30.86-2.22 27.55-0.83 24.24 0.56 20.15 0.56 16.06 0.56 12.59-0.85 9.11-2.27 6.73-4.74ZM10.3-29.93Q8.52-27.86 7.56-25.1 6.59-22.34 6.59-19.7 6.59-17.07 6.98-14.97 7.37-12.87 8.14-11 8.91-9.13 10.07-7.54 11.23-5.96 12.77-4.81L12.77-4.81Q16.04-2.37 20.48-2.37L20.48-2.37Q26.56-2.37 30.37-6.49L30.37-6.49Q34.11-10.55 34.11-17.07L34.11-17.07Q34.11-24.24 30.86-29L30.86-29Q27.15-34.45 20.02-34.45L20.02-34.45Q14.14-34.45 10.3-29.93L10.3-29.93ZM80.14-3.32L80.65-1.03Q77.99 0.56 76.4 0.56L76.4 0.56Q74.89 0.56 74.16-0.05L74.16-0.05Q72.84-1.07 72.84-2.47L72.84-2.47 72.84-2.81Q70.74-1.03 68.49-0.23 66.25 0.56 64.56 0.56L64.56 0.56Q61.15 0.56 59.21-1.31 57.26-3.17 57.26-6.96L57.26-6.96 57.26-20.36 54.36-20.85 54.36-23 61.22-24.73 61.22-6.96Q61.22-4.76 62.73-3.56L62.73-3.56Q63.98-2.59 65.66-2.59L65.66-2.59Q68.42-2.59 70.84-4.05L70.84-4.05Q71.94-4.69 72.84-5.54L72.84-5.54 72.84-20.36 69.15-20.85 69.15-22.88 76.8-24.73 76.8-4.13Q76.8-2.81 78.11-2.81L78.11-2.81Q79.04-2.81 80.14-3.32L80.14-3.32ZM97.76-2.59L97.76-20.36 94.63-20.92 94.63-22.95 101.71-24.73 101.71-18.51Q107.33-24.73 110.16-24.73L110.16-24.73Q112.48-24.73 114.43-22.88L114.43-22.88 113.16-18.92 112.01-18.92Q112.01-20.12 110.18-20.7L110.18-20.7Q109.67-20.85 109.16-20.85L109.16-20.85Q106.57-20.85 101.71-15.65L101.71-15.65 101.71-2.59 106.55-2.03 106.55 0 94.63 0 94.63-2.03 97.76-2.59ZM161.65-34.18L172.34-5.86 178.62-26.27 178.37-23.02 174.13-34.18 171.07-34.74 171.07-36.82 182.5-36.82 182.52-34.74 178.96-34.18 188.46-6.03Q189.75-9.5 190.87-13.04L190.87-13.04 195.27-27.2Q196.39-30.71 197.69-34.18L197.69-34.18 194.17-34.74 194.17-36.82 203.54-36.82 203.54-34.74 200.83-34.28 189.02 0 186.38 0 178.67-22.17 179.86-21.9 172.91 0 170.27 0 156.82-34.18 154.03-34.74 154.03-36.82 164.73-36.82 164.9-34.74 161.65-34.18ZM217.67-11.87L217.67-11.87Q217.67-14.67 218.63-17.09 219.6-19.51 221.26-21.19L221.26-21.19Q224.68-24.73 229.68-24.73L229.68-24.73Q235.49-24.73 238.76-21.29L238.76-21.29Q241.86-17.99 241.86-12.67L241.86-12.67Q241.86-6.74 238.35-3.03L238.35-3.03Q234.93 0.56 229.9 0.56L229.9 0.56Q224.16 0.56 220.82-2.98L220.82-2.98Q217.67-6.3 217.67-11.87ZM223.92-19.15Q222.94-17.9 222.44-16.21 221.94-14.53 221.94-12.56 221.94-10.6 222.39-8.73 222.85-6.86 223.8-5.42L223.8-5.42Q225.9-2.29 229.85-2.29L229.85-2.29Q233.56-2.29 235.61-4.74L235.61-4.74Q237.64-7.13 237.64-11.21L237.64-11.21Q237.64-18.43 233.51-20.92L233.51-20.92Q231.98-21.85 229.88-21.85 227.78-21.85 226.34-21.13 224.9-20.41 223.92-19.15ZM259.85-2.59L259.85-20.36 256.72-20.92 256.72-22.95 263.8-24.73 263.8-18.51Q269.42-24.73 272.25-24.73L272.25-24.73Q274.57-24.73 276.52-22.88L276.52-22.88 275.25-18.92 274.1-18.92Q274.1-20.12 272.27-20.7L272.27-20.7Q271.76-20.85 271.25-20.85L271.25-20.85Q268.66-20.85 263.8-15.65L263.8-15.65 263.8-2.59 268.63-2.03 268.63 0 256.72 0 256.72-2.03 259.85-2.59ZM296.04-40.6L296.04-2.59 299.17-2.03 299.17 0 288.91 0 288.91-2.03 292.09-2.59 292.09-36.21 288.91-36.82 288.91-38.79 296.04-40.6ZM326.38-24.73L326.38-24.73Q329.43-24.73 332.46-23.54L332.46-23.54 332.46-36.06 328.72-36.82 328.72-38.79 336.41-40.6 336.41-3.91Q336.41-2.81 337.64-2.81 338.88-2.81 340.73-3.56L340.73-3.56 341.24-1.27Q337.75 0.56 336.02 0.56L336.02 0.56Q333.51 0.56 332.72-1.07L332.72-1.07Q332.46-1.66 332.46-2.47L332.46-2.47Q330.62-0.85 328.55-0.15 326.47 0.56 324.24 0.56 322.01 0.56 319.93-0.29 317.86-1.15 316.46-2.73L316.46-2.73Q313.75-5.83 313.75-11.5L313.75-11.5Q313.75-16.92 316.95-20.61L316.95-20.61Q320.49-24.73 326.38-24.73ZM326.38-2.86L326.38-2.86Q328.84-2.86 332.46-5.18L332.46-5.18 332.46-19.04Q330.36-21.85 325.77-21.85L325.77-21.85Q322.23-21.85 320.03-18.99L320.03-18.99Q317.98-16.28 317.98-12.01L317.98-12.01Q317.98-8.13 319.93-5.64L319.93-5.64Q322.08-2.86 326.38-2.86ZM406.19 0L406.19-2.08 409.56-2.64 405.7-12.13 391.05-12.13 387.22-2.64 390.66-2.08 390.66 0 380.19 0 380.19-2.08 384.04-2.64 396.86-34.33 395.84-36.74 399.79-38.4 414.39-2.64 418.32-2.08 418.32 0 406.19 0ZM398.4-30.76L392.2-15.09 404.63-15.09 398.4-30.76ZM445.63-21.56L445.63-21.56Q441.9-21.56 438.14-18.97L438.14-18.97 438.14-2.59 441.24-2.03 441.24 0 430.98 0 430.98-2.03 434.16-2.59 434.16-20.36 430.98-20.92 430.98-22.95 437.72-24.73 437.72-21.56Q442.65-24.73 446.88-24.73L446.88-24.73Q451.95-24.73 453.49-20.51L453.49-20.51Q454-19.09 454-17.19L454-17.19 454-2.59 457.11-2.03 457.11 0 446.88 0 446.88-2.03 450.02-2.59 450.02-16.72Q450.02-21.56 445.63-21.56ZM491.3-5.59L491.3-5.59 492.69-4Q488.81-0.51 485.17 0.37L485.17 0.37Q484.36 0.56 483.58 0.56L483.58 0.56Q478.21 0.56 474.84-2.83L474.84-2.83Q471.5-6.15 471.5-11.5L471.5-11.5Q471.5-16.82 474.65-20.61L474.65-20.61Q478.11-24.73 483.66-24.73L483.66-24.73Q487.49-24.73 490.13-21.97L490.13-21.97Q492.93-19.09 492.93-14.48L492.93-14.48 491.79-13.45 475.87-12.3Q475.92-7.86 478.75-5.2L478.75-5.2Q481.29-2.86 484.66-2.86 488.03-2.86 491.3-5.59ZM476.04-14.6L476.04-14.6 488.59-15.75Q488.42-19.8 485.46-21.31L485.46-21.31Q484.41-21.85 482.78-21.85 481.14-21.85 479.86-21.04 478.58-20.24 477.75-19.09L477.75-19.09Q476.16-16.92 476.04-14.6ZM545.22-21.56L536.7 0 533.3 0 527.15-17.26 520.78 0 517.39 0 508.82-21.56 506.03-22.12 506.03-24.15 516.12-24.15 516.12-22.12 513.28-21.56 519.97-3.96 525.74-20.36 525.03-21.56 521.93-22.12 521.93-24.15 532.57-24.15 532.57-22.12 529.57-21.56 535.89-3.96Q535.89-3.96 542.29-21.68L542.29-21.68 539.46-22.12 539.46-24.15 547.95-24.15 547.95-22.12 545.22-21.56Z" opacity="1" transform="matrix(1,0,0,1,0,0)" fill="#404040" class="undefined-text-1" data-fill-palette-color="secondary" id="text-1"></path></svg></g></svg></g></svg></g></svg></g><g></g></svg></g></svg></g></svg></g></svg></g><defs><mask id="32d2aade-a229-4ce1-9b20-b75888a7f377"><rect width="395.52" height="247.2" fill="white"></rect><g transform="matrix(1,0,0,1,0,73.94173256126837)" id="clone"><svg viewBox="0 0 395.52 99.31653487746327" height="99.31653487746327" width="395.52"><g><svg viewBox="0 0 395.52 99.31653487746327" height="99.31653487746327" width="395.52"><g><svg viewBox="0 0 395.52 99.31653487746327" height="99.31653487746327" width="395.52"><g><svg viewBox="0 0 395.52 99.31653487746327" height="99.31653487746327" width="395.52"><g id="SvgjsG1003"><svg viewBox="0 0 395.52 99.31653487746327" height="99.31653487746327" width="395.52" id="SvgjsSvg1002"><g><svg viewBox="0 0 395.52 58.79584581818182" height="58.79584581818182" width="395.52"><g transform="matrix(1,0,0,1,0,0)"><svg width="395.52" viewBox="-1 -38.9 344.73 52.1" height="58.79584581818182" data-palette-color="#323232"><path d="M30.5-6.9L28.8 0 2 0 2-1.4 3.7-1.4Q5.15-1.4 5.63-1.95 6.1-2.5 6.1-3.7L6.1-3.7 6.1-31.3Q6.1-32.3 5.48-32.95 4.85-33.6 3.7-33.6L3.7-33.6 2-33.6 2-35 28.4-35 28.8-28.1 27.4-27.8Q27.4-29.6 25.95-31.25 24.5-32.9 21.9-32.9L21.9-32.9 12.8-32.9Q11.3-32.9 10.85-32.33 10.4-31.75 10.4-30.7L10.4-30.7 10.4-19.3 20.4-19.3Q21.15-19.3 21.55-19.38 21.95-19.45 22.28-19.9 22.6-20.35 22.6-21.2L22.6-21.2 22.6-23.5 24.1-23.5 24.1-13.1 22.6-13.1 22.6-15.2Q22.6-16.45 22.05-16.82 21.5-17.2 20.4-17.2L20.4-17.2 10.4-17.2 10.4-4.3Q10.4-3.25 10.85-2.68 11.3-2.1 12.8-2.1L12.8-2.1 22.3-2.1Q24.95-2.1 26.98-3.8 29-5.5 29.1-7.1L29.1-7.1 30.5-6.9ZM84.9 8.7L84.9 8.7 84.4 10.1Q83.7 10.2 81.55 10.2 79.4 10.2 75.9 9.78 72.4 9.35 68.15 8.4 63.9 7.45 59.52 5.45 55.15 3.45 51.7 0.7L51.7 0.7Q50.5 1 49.1 1L49.1 1Q42.55 1 38.12-4.08 33.7-9.15 33.7-15.8L33.7-15.8Q33.7-21.05 36.75-25.8 39.8-30.55 44.25-33.23 48.7-35.9 53-35.9L53-35.9Q59.55-35.9 63.97-30.8 68.4-25.7 68.4-19.1L68.4-19.1Q68.4-13.7 65.35-9 62.3-4.3 57.2-1.3L57.2-1.3Q61.25 2.5 69.25 5.6 77.25 8.7 84.9 8.7ZM52.2-2.8L52.2-2.8Q57.5-2.8 61.3-6.95 65.1-11.1 65.1-16.4L65.1-16.4Q65.1-22.6 60.72-27.25 56.35-31.9 50.3-31.9L50.3-31.9Q45.1-31.9 41.1-28.18 37.1-24.45 37.1-19.3L37.1-19.3Q37.1-15.25 38.9-11.53 40.7-7.8 44.25-5.3 47.8-2.8 52.2-2.8ZM80.25-21Q81.35-21 82.02-20.2 82.7-19.4 82.7-18.25 82.7-17.1 81.72-16.3 80.75-15.5 79.62-15.5 78.5-15.5 77.9-16.3 77.3-17.1 77.3-18.2 77.3-19.3 78.22-20.15 79.15-21 80.25-21ZM80.25-4.7Q81.35-4.7 82.02-3.95 82.7-3.2 82.7-2.02 82.7-0.85 81.75-0.08 80.8 0.7 79.65 0.7 78.5 0.7 77.9-0.08 77.3-0.85 77.3-1.95 77.3-3.05 78.22-3.88 79.15-4.7 80.25-4.7ZM100.79-35L108.49-35 117.99-35.5Q122.39-35.5 125.19-33.65 127.99-31.8 127.99-28.6L127.99-28.6Q127.99-24.15 125.59-21.35 123.19-18.55 119.69-17.1L119.69-17.1 127.79-4.9Q128.29-4.1 129.72-2.75 131.14-1.4 132.29-1.4L132.29-1.4 133.19-1.4 133.19 0 125.79 0Q125.94 0 124.84-1.5 123.74-3 123.59-3.3L123.59-3.3 115.29-16.1Q114.79-16 113.29-16 111.79-16 110.89-16.1L110.89-16.1 110.49-18.1Q111.19-18 113.49-18 115.79-18 118.09-18.6 120.39-19.2 122.14-20.88 123.89-22.55 123.89-25.2L123.89-25.2Q123.89-32.6 114.39-32.6L114.39-32.6 109.19-32.4 109.19-3.7Q109.19-2.95 109.29-2.55 109.39-2.15 109.94-1.78 110.49-1.4 111.59-1.4L111.59-1.4 113.49-1.4 113.49 0 100.79 0 100.79-1.4 102.39-1.4Q103.49-1.4 104.04-1.78 104.59-2.15 104.69-2.55 104.79-2.95 104.79-3.7L104.79-3.7 104.79-31.3Q104.79-32.45 104.32-32.98 103.84-33.5 102.39-33.5L102.39-33.5 100.79-33.5 100.79-35ZM164.59-6.9L162.89 0 136.09 0 136.09-1.4 137.79-1.4Q139.24-1.4 139.71-1.95 140.19-2.5 140.19-3.7L140.19-3.7 140.19-31.3Q140.19-32.3 139.56-32.95 138.94-33.6 137.79-33.6L137.79-33.6 136.09-33.6 136.09-35 162.49-35 162.89-28.1 161.49-27.8Q161.49-29.6 160.04-31.25 158.59-32.9 155.99-32.9L155.99-32.9 146.89-32.9Q145.39-32.9 144.94-32.33 144.49-31.75 144.49-30.7L144.49-30.7 144.49-19.3 154.49-19.3Q155.24-19.3 155.64-19.38 156.04-19.45 156.36-19.9 156.69-20.35 156.69-21.2L156.69-21.2 156.69-23.5 158.19-23.5 158.19-13.1 156.69-13.1 156.69-15.2Q156.69-16.45 156.14-16.82 155.59-17.2 154.49-17.2L154.49-17.2 144.49-17.2 144.49-4.3Q144.49-3.25 144.94-2.68 145.39-2.1 146.89-2.1L146.89-2.1 156.39-2.1Q159.04-2.1 161.06-3.8 163.09-5.5 163.19-7.1L163.19-7.1 164.59-6.9ZM218.99 8.7L218.99 8.7 218.49 10.1Q217.79 10.2 215.64 10.2 213.49 10.2 209.99 9.78 206.49 9.35 202.24 8.4 197.99 7.45 193.61 5.45 189.24 3.45 185.79 0.7L185.79 0.7Q184.59 1 183.19 1L183.19 1Q176.64 1 172.21-4.08 167.79-9.15 167.79-15.8L167.79-15.8Q167.79-21.05 170.84-25.8 173.89-30.55 178.34-33.23 182.79-35.9 187.09-35.9L187.09-35.9Q193.64-35.9 198.06-30.8 202.49-25.7 202.49-19.1L202.49-19.1Q202.49-13.7 199.44-9 196.39-4.3 191.29-1.3L191.29-1.3Q195.34 2.5 203.34 5.6 211.34 8.7 218.99 8.7ZM186.29-2.8L186.29-2.8Q191.59-2.8 195.39-6.95 199.19-11.1 199.19-16.4L199.19-16.4Q199.19-22.6 194.81-27.25 190.44-31.9 184.39-31.9L184.39-31.9Q179.19-31.9 175.19-28.18 171.19-24.45 171.19-19.3L171.19-19.3Q171.19-15.25 172.99-11.53 174.79-7.8 178.34-5.3 181.89-2.8 186.29-2.8ZM237.48-14.4L237.48-14.4 237.48-31.3Q237.48-33.5 234.38-33.5L234.38-33.5 232.78-33.5 232.78-35 244.78-35 244.78-33.5 242.88-33.5Q241.23-33.5 240.41-32.88 239.58-32.25 239.58-31.3L239.58-31.3 239.58-14.4Q239.58-10.6 238.21-7.53 236.83-4.45 234.68-2.65L234.68-2.65Q230.23 1 225.28 1 220.33 1 216.51-2.1 212.68-5.2 212.68-9.4L212.68-9.4 212.68-31.3Q212.68-32.05 212.58-32.45 212.48-32.85 211.93-33.18 211.38-33.5 210.28-33.5L210.28-33.5 208.58-33.5 208.58-35 221.38-35 221.38-33.5 219.48-33.5Q218.38-33.5 217.83-33.18 217.28-32.85 217.18-32.45 217.08-32.05 217.08-31.3L217.08-31.3 217.08-13.7Q217.08-8.15 219.61-5.68 222.13-3.2 227.18-3.2L227.18-3.2Q229.53-3.2 231.48-4 233.43-4.8 234.61-5.9 235.78-7 236.63-9.22 237.48-11.45 237.48-14.4ZM261.23-1.4L261.23 0 248.53 0 248.53-1.4 250.23-1.4Q251.73-1.4 252.18-2 252.63-2.6 252.63-3.7L252.63-3.7 252.63-31.3Q252.63-32.4 252.18-33 251.73-33.6 250.23-33.6L250.23-33.6 248.53-33.6 248.53-35 261.23-35 261.23-33.6 259.33-33.6Q257.83-33.6 257.38-33 256.93-32.4 256.93-31.3L256.93-31.3 256.93-3.7Q256.93-2.6 257.38-2 257.83-1.4 259.33-1.4L259.33-1.4 261.23-1.4ZM293.73-6.9L292.03 0 265.23 0 265.23-1.4 266.93-1.4Q268.38-1.4 268.85-1.95 269.33-2.5 269.33-3.7L269.33-3.7 269.33-31.3Q269.33-32.3 268.7-32.95 268.08-33.6 266.93-33.6L266.93-33.6 265.23-33.6 265.23-35 291.63-35 292.03-28.1 290.63-27.8Q290.63-29.6 289.18-31.25 287.73-32.9 285.13-32.9L285.13-32.9 276.03-32.9Q274.53-32.9 274.08-32.33 273.63-31.75 273.63-30.7L273.63-30.7 273.63-19.3 283.63-19.3Q284.38-19.3 284.78-19.38 285.18-19.45 285.5-19.9 285.83-20.35 285.83-21.2L285.83-21.2 285.83-23.5 287.33-23.5 287.33-13.1 285.83-13.1 285.83-15.2Q285.83-16.45 285.28-16.82 284.73-17.2 283.63-17.2L283.63-17.2 273.63-17.2 273.63-4.3Q273.63-3.25 274.08-2.68 274.53-2.1 276.03-2.1L276.03-2.1 285.53-2.1Q288.18-2.1 290.2-3.8 292.23-5.5 292.33-7.1L292.33-7.1 293.73-6.9ZM329.83-29.9L318.63-0.5Q318.58-0.5 318.38-0.5 318.18-0.5 316.83 0.5L316.83 0.5 305.33-29.6 302.93-3.4Q302.83-2.6 303.68-2.05 304.53-1.5 306.03-1.5L306.03-1.5 308.13-1.5 308.13 0 296.13 0 296.13-1.5 297.73-1.5Q300.63-1.5 300.83-3.7L300.83-3.7 303.33-31.3Q303.43-32.25 302.65-32.88 301.88-33.5 300.23-33.5L300.23-33.5 298.63-33.5 298.63-35 308.03-35 318.73-6.8 329.53-35 338.53-35 338.53-33.6 336.53-33.6Q334.13-33.6 334.13-31.75L334.13-31.75Q334.13-31.6 334.13-31.4L334.13-31.4 336.43-3.7Q336.53-2.55 337-2.02 337.48-1.5 338.73-1.5L338.73-1.5 340.73-1.5 340.73 0 327.93 0 327.93-1.5 329.63-1.5Q331.03-1.5 331.53-1.95 332.03-2.4 332.03-2.93 332.03-3.45 332.03-3.7L332.03-3.7 329.83-29.9Z" opacity="1" transform="matrix(1,0,0,1,0,0)" fill="#323232" class="undefined-text-0" data-fill-palette-color="primary" id="SvgjsPath1001" stroke-width="5" stroke="black" stroke-linejoin="round"></path></svg></g></svg></g><g transform="matrix(1,0,0,1,2.5,66.53606739819054)"><svg viewBox="0 0 390.52 32.78046747927272" height="32.78046747927272" width="390.52"><g transform="matrix(1,0,0,1,0,0)"><svg width="390.52" viewBox="-1.12 -43.6 552.07 47.160000000000004" height="32.78046747927272" data-palette-color="#404040"><path d="M6.73-4.74Q4.35-7.2 3.11-10.56 1.88-13.92 1.88-17.35 1.88-20.78 2.56-23.41 3.25-26.05 4.46-28.22 5.66-30.4 7.36-32.1 9.06-33.81 11.08-34.99L11.08-34.99Q15.21-37.38 19.92-37.38 24.63-37.38 28.1-36 31.57-34.62 33.94-32.2L33.94-32.2Q38.75-27.29 38.75-19.31L38.75-19.31Q38.75-10.42 33.35-4.81L33.35-4.81Q30.86-2.22 27.55-0.83 24.24 0.56 20.15 0.56 16.06 0.56 12.59-0.85 9.11-2.27 6.73-4.74ZM10.3-29.93Q8.52-27.86 7.56-25.1 6.59-22.34 6.59-19.7 6.59-17.07 6.98-14.97 7.37-12.87 8.14-11 8.91-9.13 10.07-7.54 11.23-5.96 12.77-4.81L12.77-4.81Q16.04-2.37 20.48-2.37L20.48-2.37Q26.56-2.37 30.37-6.49L30.37-6.49Q34.11-10.55 34.11-17.07L34.11-17.07Q34.11-24.24 30.86-29L30.86-29Q27.15-34.45 20.02-34.45L20.02-34.45Q14.14-34.45 10.3-29.93L10.3-29.93ZM80.14-3.32L80.65-1.03Q77.99 0.56 76.4 0.56L76.4 0.56Q74.89 0.56 74.16-0.05L74.16-0.05Q72.84-1.07 72.84-2.47L72.84-2.47 72.84-2.81Q70.74-1.03 68.49-0.23 66.25 0.56 64.56 0.56L64.56 0.56Q61.15 0.56 59.21-1.31 57.26-3.17 57.26-6.96L57.26-6.96 57.26-20.36 54.36-20.85 54.36-23 61.22-24.73 61.22-6.96Q61.22-4.76 62.73-3.56L62.73-3.56Q63.98-2.59 65.66-2.59L65.66-2.59Q68.42-2.59 70.84-4.05L70.84-4.05Q71.94-4.69 72.84-5.54L72.84-5.54 72.84-20.36 69.15-20.85 69.15-22.88 76.8-24.73 76.8-4.13Q76.8-2.81 78.11-2.81L78.11-2.81Q79.04-2.81 80.14-3.32L80.14-3.32ZM97.76-2.59L97.76-20.36 94.63-20.92 94.63-22.95 101.71-24.73 101.71-18.51Q107.33-24.73 110.16-24.73L110.16-24.73Q112.48-24.73 114.43-22.88L114.43-22.88 113.16-18.92 112.01-18.92Q112.01-20.12 110.18-20.7L110.18-20.7Q109.67-20.85 109.16-20.85L109.16-20.85Q106.57-20.85 101.71-15.65L101.71-15.65 101.71-2.59 106.55-2.03 106.55 0 94.63 0 94.63-2.03 97.76-2.59ZM161.65-34.18L172.34-5.86 178.62-26.27 178.37-23.02 174.13-34.18 171.07-34.74 171.07-36.82 182.5-36.82 182.52-34.74 178.96-34.18 188.46-6.03Q189.75-9.5 190.87-13.04L190.87-13.04 195.27-27.2Q196.39-30.71 197.69-34.18L197.69-34.18 194.17-34.74 194.17-36.82 203.54-36.82 203.54-34.74 200.83-34.28 189.02 0 186.38 0 178.67-22.17 179.86-21.9 172.91 0 170.27 0 156.82-34.18 154.03-34.74 154.03-36.82 164.73-36.82 164.9-34.74 161.65-34.18ZM217.67-11.87L217.67-11.87Q217.67-14.67 218.63-17.09 219.6-19.51 221.26-21.19L221.26-21.19Q224.68-24.73 229.68-24.73L229.68-24.73Q235.49-24.73 238.76-21.29L238.76-21.29Q241.86-17.99 241.86-12.67L241.86-12.67Q241.86-6.74 238.35-3.03L238.35-3.03Q234.93 0.56 229.9 0.56L229.9 0.56Q224.16 0.56 220.82-2.98L220.82-2.98Q217.67-6.3 217.67-11.87ZM223.92-19.15Q222.94-17.9 222.44-16.21 221.94-14.53 221.94-12.56 221.94-10.6 222.39-8.73 222.85-6.86 223.8-5.42L223.8-5.42Q225.9-2.29 229.85-2.29L229.85-2.29Q233.56-2.29 235.61-4.74L235.61-4.74Q237.64-7.13 237.64-11.21L237.64-11.21Q237.64-18.43 233.51-20.92L233.51-20.92Q231.98-21.85 229.88-21.85 227.78-21.85 226.34-21.13 224.9-20.41 223.92-19.15ZM259.85-2.59L259.85-20.36 256.72-20.92 256.72-22.95 263.8-24.73 263.8-18.51Q269.42-24.73 272.25-24.73L272.25-24.73Q274.57-24.73 276.52-22.88L276.52-22.88 275.25-18.92 274.1-18.92Q274.1-20.12 272.27-20.7L272.27-20.7Q271.76-20.85 271.25-20.85L271.25-20.85Q268.66-20.85 263.8-15.65L263.8-15.65 263.8-2.59 268.63-2.03 268.63 0 256.72 0 256.72-2.03 259.85-2.59ZM296.04-40.6L296.04-2.59 299.17-2.03 299.17 0 288.91 0 288.91-2.03 292.09-2.59 292.09-36.21 288.91-36.82 288.91-38.79 296.04-40.6ZM326.38-24.73L326.38-24.73Q329.43-24.73 332.46-23.54L332.46-23.54 332.46-36.06 328.72-36.82 328.72-38.79 336.41-40.6 336.41-3.91Q336.41-2.81 337.64-2.81 338.88-2.81 340.73-3.56L340.73-3.56 341.24-1.27Q337.75 0.56 336.02 0.56L336.02 0.56Q333.51 0.56 332.72-1.07L332.72-1.07Q332.46-1.66 332.46-2.47L332.46-2.47Q330.62-0.85 328.55-0.15 326.47 0.56 324.24 0.56 322.01 0.56 319.93-0.29 317.86-1.15 316.46-2.73L316.46-2.73Q313.75-5.83 313.75-11.5L313.75-11.5Q313.75-16.92 316.95-20.61L316.95-20.61Q320.49-24.73 326.38-24.73ZM326.38-2.86L326.38-2.86Q328.84-2.86 332.46-5.18L332.46-5.18 332.46-19.04Q330.36-21.85 325.77-21.85L325.77-21.85Q322.23-21.85 320.03-18.99L320.03-18.99Q317.98-16.28 317.98-12.01L317.98-12.01Q317.98-8.13 319.93-5.64L319.93-5.64Q322.08-2.86 326.38-2.86ZM406.19 0L406.19-2.08 409.56-2.64 405.7-12.13 391.05-12.13 387.22-2.64 390.66-2.08 390.66 0 380.19 0 380.19-2.08 384.04-2.64 396.86-34.33 395.84-36.74 399.79-38.4 414.39-2.64 418.32-2.08 418.32 0 406.19 0ZM398.4-30.76L392.2-15.09 404.63-15.09 398.4-30.76ZM445.63-21.56L445.63-21.56Q441.9-21.56 438.14-18.97L438.14-18.97 438.14-2.59 441.24-2.03 441.24 0 430.98 0 430.98-2.03 434.16-2.59 434.16-20.36 430.98-20.92 430.98-22.95 437.72-24.73 437.72-21.56Q442.65-24.73 446.88-24.73L446.88-24.73Q451.95-24.73 453.49-20.51L453.49-20.51Q454-19.09 454-17.19L454-17.19 454-2.59 457.11-2.03 457.11 0 446.88 0 446.88-2.03 450.02-2.59 450.02-16.72Q450.02-21.56 445.63-21.56ZM491.3-5.59L491.3-5.59 492.69-4Q488.81-0.51 485.17 0.37L485.17 0.37Q484.36 0.56 483.58 0.56L483.58 0.56Q478.21 0.56 474.84-2.83L474.84-2.83Q471.5-6.15 471.5-11.5L471.5-11.5Q471.5-16.82 474.65-20.61L474.65-20.61Q478.11-24.73 483.66-24.73L483.66-24.73Q487.49-24.73 490.13-21.97L490.13-21.97Q492.93-19.09 492.93-14.48L492.93-14.48 491.79-13.45 475.87-12.3Q475.92-7.86 478.75-5.2L478.75-5.2Q481.29-2.86 484.66-2.86 488.03-2.86 491.3-5.59ZM476.04-14.6L476.04-14.6 488.59-15.75Q488.42-19.8 485.46-21.31L485.46-21.31Q484.41-21.85 482.78-21.85 481.14-21.85 479.86-21.04 478.58-20.24 477.75-19.09L477.75-19.09Q476.16-16.92 476.04-14.6ZM545.22-21.56L536.7 0 533.3 0 527.15-17.26 520.78 0 517.39 0 508.82-21.56 506.03-22.12 506.03-24.15 516.12-24.15 516.12-22.12 513.28-21.56 519.97-3.96 525.74-20.36 525.03-21.56 521.93-22.12 521.93-24.15 532.57-24.15 532.57-22.12 529.57-21.56 535.89-3.96Q535.89-3.96 542.29-21.68L542.29-21.68 539.46-22.12 539.46-24.15 547.95-24.15 547.95-22.12 545.22-21.56Z" opacity="1" transform="matrix(1,0,0,1,0,0)" fill="#404040" class="undefined-text-1" data-fill-palette-color="secondary" id="SvgjsPath1000" stroke-width="5" stroke="black" stroke-linejoin="round"></path></svg></g></svg></g></svg></g></svg></g><g></g></svg></g></svg></g></svg></g></mask></defs></svg><rect width="395.52" height="247.2" fill="none" stroke="none" visibility="hidden"></rect></g></svg></g></svg>